<svg xmlns="http://www.w3.org/2000/svg" xmlns:xlink="http://www.w3.org/1999/xlink" id="Layer_1" x="0px" y="0px" viewBox="0 0 300 138" style="enable-background:new 0 0 300 138;" xml:space="preserve"><style type="text/css">	.st0{fill:#DAA855;}	.st1{fill:#243855;}	.st2{opacity:0.56;}	.st3{fill:url(#SVGID_1_);}	.st4{fill:url(#SVGID_2_);}</style><g>	<path class="st0" d="M243.2,49.1c2.2-0.6,4.4-1.2,6.6-1.7c5.9-1.5,11.8-2.8,17.8-3.6c3.4-0.5,6.9-0.9,10.3-0.9  c0.6,0,0.7,0.1,0.7,0.7c0,3.8,0,7.5,0,11.3c0,0.6-0.2,0.7-0.7,0.7c-4.4-0.1-8.8-0.6-13.1-1.3c-7.2-1.2-14.4-2.9-21.4-4.9  c-0.1,0-0.1,0-0.2-0.1C243.2,49.2,243.2,49.1,243.2,49.1z"></path>	<g>		<path class="st0" d="M21,38.5c3.3-3.2,6.8-6.2,10.4-9.1c0.2-0.1,0.8-0.7,1.1-0.8c-0.2,0.3-0.8,1-1,1.2c-3.9,4.6-6.1,9.8-7,15.7   c-0.1,0.4,0,0.7,0.3,1.1c1.8,2.7,8.8,6.1,8.9,6.1c0.1,0,0.2,0,0.2-0.1c0.1-0.2,0.1-0.4,0.1-0.6c0.1-1.6,0.3-3.2,0.5-4.9   c0.8-6.1,2.2-12,4.2-17.9c0.2-0.7,0.5-1.3,0.8-2.1c0.1,0.1,0,8.7-0.1,13c0,0.7-1,14.4-1,15.3c-0.1,2.1-0.2,4.2-0.4,6.2   c0,0.4,0.1,0.6,0.4,0.7c0.9,0.6,1.7,1.2,2.6,1.8c0.4,0.3,0.7,0.2,1,0c0.6-0.5,1.3-1,1.9-1.3c0.6-0.4,0.8-0.8,0.7-1.5   c-0.2-3-0.4-6-0.6-9.1c-0.1-1.7-0.2-3.4-0.3-5.1c-0.1-2.1-0.3-4.2-0.4-6.3c-0.1-2.7-0.2-5.4-0.2-8.1c0-2,0-3.9,0-5.9   c0.1,0.1,0.6,1.4,0.8,2c2.7,7.5,4.3,15.2,4.8,23.1c0.1,0.9,0.2,0.9,1,0.6c2.9-1.2,5.4-3,7.7-5.2c0.6-0.6,0.9-1.2,0.7-2.1   c-0.8-4.7-2.5-9.1-5.2-13c-1-1.5-3.7-4.3-3.6-4.4c0,0,6.7,5.1,9.5,7.7c1.3,1.2,2.5,2.3,3.8,3.5c0.1-0.2,0.1-0.3,0.2-0.4   c1.1-3.2,1.4-6.5,1.3-9.8c0-0.4-0.2-0.6-0.5-0.8c-2.7-1.8-5.4-3.4-8.5-4.5c-2.3-0.8-4.7-1.2-7.1-1.3c0.1-0.1,3.3-0.8,4.8-1   c2.9-0.5,5.7-0.6,8.6-0.2c0.2,0,0.5,0.2,0.6,0c0.1-0.2,0-0.4-0.1-0.6c-1.2-2.7-2.9-5.1-5.1-7.2c-0.4-0.4-0.8-0.5-1.3-0.3   c-1.4,0.4-2.8,0.8-4.2,1.4c-2.5,1.1-6.8,4.3-6.7,4.3c0-0.2,2.1-5.6,2.9-8.2c0.3-1.1,0.2-1.2-0.9-1.4C43,8,39.6,8,36.2,8.8   c-1.1,0.3-1.1,0.3-0.8,1.4c0.8,3,3.3,8.9,3.3,9c0,0-0.6-0.4-0.8-0.6c-3.1-2.8-6.6-4.7-10.6-5.7c-0.4-0.1-0.8-0.2-1.3,0.2   c-2.1,2.1-3.8,4.4-5.1,7.1c-0.3,0.6-0.1,1,0.6,0.8c2.7-0.4,5.4-0.4,8.1,0c1.9,0.3,3.7,0.6,5.5,1.1c-1.2,0-2.3,0.1-3.5,0.3   c-4.6,0.8-8.7,3-12.5,5.5c-0.2,0.2-0.3,0.3-0.4,0.6c-0.1,3.3,0.1,6.5,1.2,9.6C20.2,39.2,20.3,39.2,21,38.5z M48.9,27.7L48.9,27.7   L48.9,27.7L48.9,27.7z"></path>		<path class="st0" d="M48.2,72c0,0,1.2-1,1.8-1.5c6.3-5.4,12.7-10.7,19-16.1c1.1-1,2.4-1.7,3.2-3c1.8-2.6,5.6-8.3,5.6-8.7   C77.4,42.8,42,67.6,42,67.6S7,44.2,4.8,42.6c0,0.4,6.3,9.6,6.9,10.1c2.6,2.2,22.6,20.2,22.6,20.2S18.5,84,10.5,89.5   c-0.2,0.2-0.5,0.3-0.7,0.6c0.4,0,0.6,0,0.9,0c5.1,0,10.1,0,15.2,0c0.7,0,1.2-0.2,1.6-0.6c2.1-1.9,4.2-3.7,6.3-5.5   c2.3-1.9,7.9-5.8,7.9-5.8s8.8,7.5,13.2,11.3c0.4,0.3,0.8,0.6,1.3,0.6c5.2,0,10.4,0,15.7,0c0.2,0,0.4,0.1,0.6-0.1   c-0.1-0.2-0.3-0.3-0.4-0.4c-3.2-2.2-6.4-4.5-9.6-6.7C57.8,79.5,48.2,72,48.2,72z"></path>		<polygon class="st0" points="77.8,42.7 77.8,42.7 77.8,42.7   "></polygon>	</g>	<g>		<path class="st1" d="M92.6,68.9c0.3,0,0.5,0.2,0.7,0.3c3.7,2.6,7.7,4.6,11.9,6c6.3,2.1,12.7,2.6,19.3,2.1c2.9-0.2,5.7-0.8,8.3-2   c3.5-1.7,5.5-4.5,5.8-8.4c0.1-1.8-0.3-3.4-1.5-4.7c-1.8-2-4-3.3-6.5-4.3c-4.8-1.9-9.8-3.2-14.8-4.6c-4-1.1-8-2-11.8-3.6   c-6.4-2.7-10.1-7.6-11.2-14.5c-0.7-4.3-0.3-8.5,1.3-12.6c1.9-4.8,5.4-8,10-10.3c3.4-1.7,7-2.7,10.7-3.3c6.2-1,12.4-1,18.7-0.3   c4.4,0.5,8.7,1.3,12.9,2.5c0.4,0.1,0.5,0.2,0.5,0.7c0.1,4.7,0.4,9.4,0.8,14c0,0.1,0,0.3,0,0.4c-0.2,0.1-0.4-0.1-0.5-0.2   c-5.5-2.8-11.4-4.4-17.5-4.9c-4.2-0.4-8.5-0.5-12.7,0.2c-2,0.3-4,0.9-5.9,1.9c-2.2,1.2-3.5,3-4.1,5.3c-0.5,2,0.1,3.9,1.5,5.4   c1.6,1.8,3.8,3,6,4c4.6,2.2,9.5,3.2,14.5,4.4c3,0.7,6,1.6,8.9,2.5c2.8,0.9,5.5,2,8,3.7c4.5,3,6.9,7.4,7.5,12.7   c0.6,4.8,0.2,9.6-1.7,14.1c-2.2,5.3-6.2,8.7-11.2,11.2c-3.8,1.8-7.8,2.8-11.9,3.2c-9,0.9-17.9,0.3-26.6-1.9   c-2.5-0.6-4.9-1.5-7.2-2.4c-0.4-0.2-0.6-0.4-0.6-0.9c-0.1-4.1-0.4-8.1-1-12.2C92.9,71.2,92.7,70,92.6,68.9z"></path>		<path class="st1" d="M231.8,27.9c-1.4-0.6-2.6-1.2-3.8-1.8c-5-2.2-10.2-4-15.7-4.7c-6.6-0.9-13.1-0.7-19.3,2   c-4.1,1.8-7.4,4.5-10,8.1c-2.6,3.6-4,7.7-4.4,12c-0.6,5.3-0.3,10.6,1.6,15.7c3.2,8.8,9.6,14.3,18.6,16.6c8,2.1,15.9,1.3,23.7-1.1   c4-1.3,7.9-3,11.6-5c0.2-0.1,0.5-0.3,0.8-0.4c-0.3,1.6-0.6,3.1-0.8,4.6c-0.7,3.8-1.1,7.6-1.3,11.4c0,0.5-0.2,0.8-0.6,0.9   c-4.5,1.7-9.1,2.6-13.8,3.2c-4.8,0.6-9.7,0.7-14.6,0.6c-7.4-0.2-14.7-1.5-21.4-4.9c-8.4-4.3-14-11.1-17.4-19.8   c-2.2-5.8-3.1-11.8-3-18c0.1-6,1.1-11.8,3.6-17.3c0.8-1.7,1.7-3.4,2.7-4.9c1.6-2.3,3.4-4.5,5.5-6.4c5-4.4,10.7-7.3,17.2-8.8   c5.9-1.4,11.9-1.7,18-1.4c7.3,0.4,14.4,1.6,21.4,3.7c0.6,0.2,0.8,0.4,0.7,1C230.6,18,230.7,22.8,231.8,27.9z"></path>		<g>			<path class="st1" d="M243,8.2c0.4,0,0.7,0,0.9,0c16.5,0,33,0,49.6,0c0.7,0,0.9,0.1,0.9,0.9c0,4.9,0.2,9.8,0.7,14.7    c-1.6-0.7-3.3-1.2-4.9-1.6c-3.3-0.7-6.7-1.1-10-1.3c-5.6-0.4-11.1-0.4-16.7-0.2c-1.3,0-2.5,0.1-3.8,0.2c-0.3,0-0.6,0-0.8-0.2    C253.6,16.6,248.4,12.5,243,8.2z"></path>			<path class="st1" d="M295.1,74.5c-0.1,1.7-0.3,3.3-0.4,5c-0.2,3.3-0.3,6.7-0.3,10c0,0.5-0.1,0.6-0.6,0.6c-16.8,0-33.5,0-50.3,0    c-0.1,0-0.1,0-0.3,0c0-0.3,0.3-0.3,0.4-0.5c5-4,10.1-7.9,15.1-11.9c0.4-0.3,0.8-0.3,1.2-0.3c4.9,0.3,9.7,0.4,14.6,0.3    c5.4-0.1,10.8-0.4,16.1-1.7C292.2,75.7,293.7,75.2,295.1,74.5z"></path>		</g>		<g>			<path class="st1" d="M137.8,113.5c0.1,0.6-0.2,0.8-0.7,0.8c-0.8-0.1-1.6,0-2.4,0c-0.8,0-1.6,0-2.3-0.9c0.1,0.9-0.3,0.9-0.8,0.9    c-1.9,0-3.7,0-5.6,0c-0.5,0-0.8,0-0.8-0.6c0-0.6,0.2-0.7,0.8-0.7c1.4,0,2.9,0,4.3,0c0.5,0,0.7-0.1,0.5-0.7    c-0.5-2.1-1.2-4.1-3.2-5.4c-0.6-0.4,0.1-0.8,0.2-1.2c0.1-0.4,0.4-0.1,0.6,0c1.2,0.6,2,1.7,2.7,2.9c0.4,0.8,0.7,1.6,0.9,2.5    c0.3,1.2,1.1,1.8,2.4,1.8c1.9,0,1.9,0,1.9-1.9c0-1.5,0-3,0-4.4c0-0.6,0.3-0.6,0.7-0.5c0.4,0,0.8-0.2,0.8,0.5c0,1.5,0,3,0,4.5    c0,1.3,0.6,1.8,1.8,1.9c0.7,0,1.5,0,2.2,0c0.3,0,0.4-0.1,0.2-0.4c-1.6-2.5-0.4-5,2.4-5.5c1-0.2,2-0.1,3-0.1    c0.4,0,0.5,0.2,0.5,0.5c0,1.6,0,3.3,0,4.9c0,0.5,0.1,0.7,0.6,0.7c1.9,0,1.9,0,1.9-1.9c0-1.3,0.1-2.5-0.2-3.8    c-0.4-1.6-1.3-2.4-2.9-2.7c-1.3-0.2-2.6-0.1-3.8,0.2c-0.7,0.2-0.6-0.3-0.8-0.6c-0.2-0.5,0-0.6,0.4-0.7c1.5-0.4,3-0.5,4.5-0.2    c2.6,0.4,4.1,2.4,4.2,5.2c0,1.3,0,2.6,0,3.9c0,0.5,0.2,0.6,0.6,0.6c0.8,0,1.7,0,2.5,0c0.5,0,0.6-0.1,0.4-0.6    c-0.4-1-0.4-2.1-0.2-3.2c0.4-1.7,1.5-2.9,3-3.2c1.7-0.3,3.3,0.3,4.1,1.6c0.8,1.4,0.8,3.5-0.2,4.8c-0.1,0.2-0.2,0.3-0.5,0.6    c1.6,0,3.1,0,4.5,0c0.5,0,0.3-0.5,0.3-0.7c0-3.3,0-6.7,0-10c0-0.7,0.7-1.2,1.3-0.8c0.3,0.2,0.2,0.5,0.2,0.7c0,2.9,0,5.8,0,8.7    c0,1.7,0.5,2.1,2.1,2.1c0.5,0,1,0,1.5,0c0.5,0,0.7-0.1,0.7-0.7c0-2,0-4,0-6c0-1.4,0-2.9,0-4.3c0-0.7,0.4-0.6,0.8-0.6    c0.4,0,0.8-0.1,0.8,0.6c0,3.9,0,7.8,0,11.8c0,0.5-0.1,0.6-0.6,0.5c-1,0-2,0-3.1,0c-0.7,0-1.5,0-2.1-0.8c0.1,0.7-0.2,0.8-0.8,0.8    c-9.2,0-18.3,0-27.5,0C139.1,114.3,138.4,114.2,137.8,113.5z M158.2,113c1.9,0,2.8-0.6,3.1-2c0.1-0.5,0.1-1,0.1-1.4    c-0.1-1.2-0.8-2.1-1.9-2.3c-1.1-0.2-2.1,0.4-2.6,1.6c-0.4,1-0.4,2-0.2,3C157,113,157,113,158.2,113z M146.4,110.6    c0-0.3,0-0.6,0-0.9c0-1.6-0.1-1.7-1.7-1.4c-1.3,0.3-1.9,0.9-2,2c-0.1,1.6,0.8,2.6,2.5,2.6c1.2,0,1.2,0,1.2-1.2    C146.4,111.4,146.4,111,146.4,110.6z"></path>			<path class="st1" d="M274.3,113c-0.9-0.9-1.2-1.7-1.1-2.7c0.1-1.7,1.2-2.8,3.1-3.2c1.1-0.2,2.1-0.1,3.2-0.2    c0.4,0,0.4,0.2,0.4,0.5c0,1.6,0,3.2,0,4.8c0,0.5,0.1,0.8,0.7,0.7c1.9,0,1.9,0,1.9-1.9c0-1.2,0.1-2.3-0.1-3.5    c-0.3-1.7-1.3-2.7-3.1-3c-1.3-0.2-2.5-0.1-3.8,0.3c-0.7,0.2-0.6-0.4-0.7-0.7c-0.2-0.4-0.1-0.6,0.4-0.7c1.6-0.4,3.2-0.5,4.8-0.2    c2.4,0.5,3.8,2.3,3.9,4.7c0.1,1.4,0.1,2.8,0,4.2c0,0.6,0.2,0.8,0.8,0.8c0.8,0,1.7,0,2.5,0c0.5,0,0.7-0.2,0.7-0.7    c0-3.4,0-6.8,0-10.2c0-0.7,0.2-0.8,0.8-0.8c0.6,0,0.7,0.2,0.7,0.8c0,3.8,0,7.6,0,11.5c0,0.5-0.1,0.7-0.7,0.7    c-5.6,0-11.3,0-16.9,0c-0.7,0-1.4-0.1-2-0.8c0.1,0.7-0.2,0.8-0.8,0.8c-1,0-1.9,0-2.9,0c-0.8,0-1.5-0.1-2.1-0.8    c0.1,0.7-0.2,0.9-0.7,0.9c-2.7,0-5.3,0-8,0c-2.5,0-3.9-1.3-4-3.5c-0.1-2.6,1.3-4.5,3.8-4.7c1-0.1,1.9,0,2.9-0.1    c0.5,0,0.5,0.2,0.5,0.6c0,1.9,0,3.8,0,5.7c0,0.5,0.1,0.7,0.7,0.7c0.9,0,1.8,0,2.7,0c0.5,0,0.6-0.1,0.6-0.6c0-1.9,0-3.7,0-5.6    c0-0.6,0.2-0.8,0.8-0.8c0.5,0,0.8,0,0.8,0.7c-0.1,1.5,0,3,0,4.4c0,1.1,0.5,1.7,1.7,1.8c0.8,0,1.9,0.3,2.4-0.1    c0.5-0.4,0.1-1.5,0.2-2.3c0-1.3,0-2.6,0-4c0-0.6,0.4-0.5,0.7-0.5c0.4,0,0.8-0.1,0.8,0.6c0,1.5,0,3,0,4.5c0,1.3,0.5,1.8,1.8,1.8    C272.4,113,273.3,113,274.3,113z M257,110.2c0-0.8,0-1.6,0-2.4c0-0.2,0-0.5-0.3-0.5c-3.1-0.2-4.4,1.5-3.8,4.1    c0.2,0.8,0.7,1.2,1.5,1.4c0.7,0.1,1.4,0,2.1,0.1c0.4,0,0.4-0.2,0.4-0.5C257,111.7,257,111,257,110.2z M278.5,110.6    c0-0.3,0-0.5,0-0.8c0-1.8-0.2-2-2-1.5c-1.2,0.3-1.8,1.1-1.7,2.3c0.1,1.2,0.8,2,1.9,2.2c0.4,0.1,0.8,0,1.1,0.1    c0.5,0.1,0.7-0.1,0.7-0.7C278.5,111.8,278.5,111.2,278.5,110.6z"></path>			<path class="st1" d="M216,112.6c-1.4-1.2-2.3-2.6-2.8-4.2c-0.1-0.5,0-0.9,0.3-1.2c1.8-1.8,5.2-2.2,7.4-0.9    c0.3,0.2,0.5,0.4,0.5,0.8c-0.2,1.9-0.9,3.6-2.3,4.9c-0.2,0.2-0.4,0.3-0.6,0.5c0.6,0.3,1.1,0.4,1.7,0.4c1.3,0,2.5,0,3.8,0    c0.4,0,0.6-0.1,0.6-0.6c0-1.5,0-3,0-4.4c0-0.6,0.3-0.6,0.7-0.6c0.5,0,0.8,0,0.7,0.6c-0.1,1,0,2,0,3c0,1.8,1.3,2.1,2.6,2    c0.4,0,0.3-0.4,0.3-0.6c0-1.4,0-2.8,0-4.2c0-0.6,0.1-0.8,0.8-0.8c0.7,0,0.7,0.3,0.7,0.9c0,0.9,0,1.9,0,2.8c0,1.5,1.1,2.1,2.6,1.9    c0.4,0,0.3-0.4,0.3-0.7c0-1.8,0-3.7,0-5.5c0-0.5,0.1-0.8,0.7-0.7c0.6,0,0.8,0.1,0.8,0.8c0,1.4,0,2.9,0,4.4c0,1.2,0.5,1.7,1.7,1.8    c2.2,0.1,2.2,0.1,2.2-2.1c0-2.9,0-5.9,0-8.8c0-0.6,0.1-0.8,0.7-0.7c0.5,0,0.8-0.1,0.8,0.7c0,3.8,0,7.7,0,11.5    c0,0.5-0.1,0.7-0.7,0.7c-0.9,0-1.8,0-2.7,0c-0.7,0-1.4-0.1-2.1-0.9c0.2,1-0.3,0.9-0.8,0.9c-0.6,0-1.2,0-1.8,0    c-0.6,0-1.2-0.2-1.7-0.8c0.1,0.9-0.4,0.8-0.9,0.8c-0.6,0-1.1,0-1.7,0c-0.7,0-1.2-0.2-1.8-0.8c0.1,0.7-0.3,0.8-0.8,0.8    c-1.6,0-3.2,0-4.8,0c-1.2,0-2.3-0.7-3.3-0.7c-1,0-2.1,0.7-3.2,0.7c-0.9,0-1.7,0-2.6,0c-0.3,0-0.5,0-0.5,0.4    c0.2,3-2.6,4.2-5.5,3.5c-0.2-0.1-0.4-0.1-0.6-0.2c-0.9-0.4-0.9-0.4-0.4-1.2c0.2-0.3,0.4-0.3,0.7-0.2c0.8,0.4,1.6,0.5,2.4,0.4    c1.2-0.1,1.9-1,2-2.1c0-0.4-0.1-0.6-0.5-0.6c-0.6,0-1.2,0-1.8,0c-1.7-0.1-2.8-1.1-3.1-2.8c-0.5-3.1,1.1-5.2,4.3-5.3    c0.6,0,1.3,0,1.9,0c0.5,0,0.6,0.1,0.6,0.6c0,1.8,0,3.7,0,5.5c0,0.7,0.2,0.9,0.9,0.8C213.1,112.9,214.5,113.1,216,112.6z     M209.5,110.2c0-0.5,0-1,0-1.4c0-1.6,0-1.6-1.7-1.3c-1.5,0.3-2.4,1.6-2.3,3.3c0.1,1.6,0.9,2.2,2.7,2.2c0.2,0,0.5,0,0.7,0    c0.4,0,0.6-0.1,0.6-0.5C209.4,111.7,209.5,111,209.5,110.2z M218.4,106.9c-1.5-0.1-2.4,0.3-3.2,0.9c-0.3,0.2-0.4,0.5-0.3,0.9    c0.4,1.2,1.1,2.1,2,2.9c0.3,0.3,0.5,0.2,0.8,0c0.8-0.6,1.5-1.4,1.8-2.4C220.1,107.3,220.3,107,218.4,106.9z"></path>			<path class="st1" d="M119,113.5c0.1,0.7-0.2,0.8-0.7,0.8c-0.6,0-1.1,0-1.7,0c-0.7,0-1.4-0.1-2-0.8c0.1,0.8-0.3,0.9-0.8,0.8    c-1,0-2,0-3,0c-0.8,0-1.5-0.1-2.1-0.8c0,0.7-0.2,0.8-0.8,0.8c-0.8-0.1-1.6,0-2.4,0c-0.8,0-1.7,0-2.4-0.9c0,0.5,0,0.9,0,1.2    c-0.1,2.3-1.4,3.7-3.7,3.8c-0.6,0-1.1,0-1.7,0c-1.7,0-2.9-1-3.3-2.7c-0.3-1.6-0.1-3.1,0.4-4.7c0.1-0.4,1.1-0.6,1.4-0.4    c0.2,0.2,0,0.4,0,0.5c-0.3,1.3-0.6,2.7-0.3,4.1c0.3,1.3,0.9,1.8,2.2,1.8c2.8,0.1,3.5-0.6,3.5-3.5c0-2.3,0-4.6,0-6.9    c0-0.6,0.3-0.6,0.7-0.6c0.4,0,0.8,0,0.7,0.6c-0.1,1.5,0,3,0,4.5c0,1.2,0.6,1.7,1.7,1.8c2.2,0.1,2.2,0.1,2.2-2.1    c0-1.4,0-2.8,0-4.1c0-0.6,0.3-0.7,0.8-0.7c0.5,0,0.8,0,0.8,0.6c-0.1,1.5,0,3,0,4.4c0,1.3,0.5,1.8,1.8,1.8c0.7,0,1.4,0,2.1,0    c0.5,0,0.6-0.2,0.6-0.6c0-1.5,0-2.9,0-4.4c0-0.6,0.2-0.7,0.7-0.6c0.4,0,0.8,0,0.7,0.6c-0.1,1,0,1.9,0,2.9c0,1.7,1.1,2.2,2.6,2.1    c0.4,0,0.3-0.3,0.3-0.6c0-1.5,0-3,0-4.4c0-0.6,0.3-0.6,0.7-0.6c0.4,0,0.8,0,0.8,0.6c-0.1,1,0,2,0,3.1c0,1.4,1,2.1,2.6,1.9    c0.4,0,0.3-0.4,0.3-0.7c0-1.8,0-3.7,0-5.5c0-0.6,0.2-0.8,0.8-0.8c0.6,0,0.7,0.1,0.7,0.7c0,2.3,0,4.6,0,6.9c0,0.5-0.1,0.7-0.6,0.6    c-0.6,0-1.2,0-1.8,0C120.2,114.3,119.6,114.1,119,113.5z"></path>			<path class="st1" d="M188.3,114.3c-1.2,0-2.4,0-3.7,0c-2.4,0-3.9-1.2-4-3.4c-0.1-2.6,1.3-4.5,3.7-4.7c1-0.1,2,0,3-0.1    c0.5,0,0.5,0.3,0.5,0.6c0,1.9,0,3.8,0,5.6c0,0.5,0.1,0.7,0.7,0.7c0.9,0,1.8-0.1,2.7,0c0.6,0,0.7-0.2,0.7-0.7c0-1.9,0-3.7,0-5.6    c0-0.6,0.3-0.6,0.7-0.6c0.4,0,0.8-0.1,0.8,0.6c0,2.3,0,4.7,0,7c0,0.5-0.2,0.6-0.6,0.6C191.2,114.2,189.7,114.3,188.3,114.3z     M186.3,110.2c0-0.8,0-1.6,0-2.4c0-0.2,0-0.5-0.3-0.5c-2.8-0.2-4.3,1.1-3.8,3.9c0.1,0.9,0.7,1.4,1.6,1.6c0.7,0.1,1.3,0,2,0.1    c0.5,0,0.6-0.2,0.6-0.6C186.3,111.7,186.3,110.9,186.3,110.2z"></path>			<path class="st1" d="M172.4,127.8c0-1.4,0-2.6,0-3.7c0-0.5,0.2-0.6,0.7-0.6c0.5,0,0.6,0.2,0.6,0.6c0,1.6,0,3.2,0,4.7    c0,0.3,0.2,0.7-0.2,0.8c-0.4,0.1-0.9,0.2-1.3-0.3c-0.9-1.2-1.9-2.3-2.9-3.4c-0.1-0.1-0.2-0.3-0.6-0.4c0,1.2,0,2.4,0,3.5    c0,0.5-0.2,0.6-0.6,0.6c-0.5,0-0.6-0.1-0.6-0.6c0-1.6,0-3.2,0-4.7c0-0.3-0.2-0.8,0.2-0.8c0.4-0.1,0.9-0.2,1.3,0.3    c0.9,1.1,1.9,2.2,2.8,3.3C171.9,127.3,172.1,127.5,172.4,127.8z"></path>			<path class="st1" d="M233.1,125.5c0,1.2,0,2.3,0,3.5c0,0.5-0.1,0.7-0.6,0.7c-0.5,0-0.6-0.2-0.6-0.7c0-1.6,0-3.2,0-4.7    c0-0.3-0.2-0.7,0.2-0.8c0.4-0.1,0.9-0.2,1.3,0.3c0.9,1.1,1.9,2.3,2.9,3.4c0.2,0.2,0.3,0.4,0.6,0.6c0-1.2,0-2.4,0-3.6    c0-0.5,0.1-0.6,0.6-0.6c0.5,0,0.6,0.2,0.6,0.7c0,1.6,0,3.2,0,4.7c0,0.3,0.2,0.7-0.2,0.8c-0.4,0.1-0.9,0.2-1.3-0.3    c-0.9-1.1-1.9-2.3-2.9-3.4c-0.1-0.2-0.3-0.3-0.5-0.5C233.2,125.5,233.1,125.5,233.1,125.5z"></path>			<path class="st1" d="M260.8,127.8c0-1.3,0-2.5,0-3.7c0-0.4,0-0.7,0.6-0.7c0.6,0,0.7,0.2,0.6,0.7c0,1.5,0,3.1,0,4.7    c0,0.3,0.2,0.7-0.2,0.8c-0.4,0.1-0.9,0.2-1.3-0.3c-0.9-1.2-1.9-2.3-2.9-3.4c-0.1-0.2-0.3-0.3-0.5-0.6c0,1.3,0,2.5,0,3.6    c0,0.7-0.3,0.8-0.8,0.8c-0.4,0-0.4-0.2-0.4-0.5c0-1.8,0-3.5,0-5.3c0-0.2-0.1-0.5,0.2-0.5c0.4,0,0.9-0.2,1.3,0.3    c1,1.2,2,2.4,3.1,3.6C260.5,127.5,260.6,127.5,260.8,127.8z"></path>			<path class="st1" d="M198.6,114.3c-1,0-2,0-3,0c-0.6,0-0.4-0.4-0.5-0.7c0-0.3-0.1-0.6,0.5-0.6c1.5,0,2.9,0,4.4,0    c0.6,0,0.8-0.1,0.6-0.7c-0.5-2.1-1.2-4-3.1-5.3c-0.6-0.4,0-0.8,0.1-1.2c0.1-0.4,0.4-0.2,0.6-0.1c0.6,0.3,1,0.6,1.4,1.1    c1.7,2,2.4,4.3,2.6,6.8c0,0.4-0.1,0.6-0.6,0.6C200.7,114.2,199.7,114.3,198.6,114.3z"></path>			<path class="st1" d="M121.4,126.5c0-0.8,0-1.6,0-2.4c0-0.4,0.1-0.6,0.6-0.6c1,0.1,2-0.1,3,0.1c1.6,0.2,2.5,1.3,2.5,2.9    c0,1.7-0.7,2.8-2.3,3.1c-1.1,0.2-2.2,0.1-3.3,0.1c-0.4,0-0.4-0.2-0.4-0.5C121.4,128.3,121.4,127.4,121.4,126.5z M122.7,126.5    c0,0.2,0,0.4,0,0.5c0,1.5,0,1.5,1.5,1.4c1.4,0,2-0.7,2-2.1c-0.1-1.4-0.7-1.8-2.8-1.7c-1.2,0.1-0.3,1.1-0.6,1.6    C122.7,126.3,122.7,126.4,122.7,126.5z"></path>			<path class="st1" d="M148.5,126.5c0-1.9,1.3-3.2,3.2-3.2c2,0,3.2,1.3,3.2,3.4c0,1.9-1.3,3.2-3.3,3.2    C149.7,129.8,148.5,128.4,148.5,126.5z M153.6,126.5c0-1.3-0.7-2.1-1.9-2.1c-1.2,0-2,0.8-2,2.1c0,1.2,0.8,2.1,1.9,2.1    C152.9,128.6,153.6,127.8,153.6,126.5z"></path>			<path class="st1" d="M205.7,129.8c-1.9,0-3.3-1.3-3.3-3.2c0-1.9,1.3-3.3,3.2-3.3c1.9,0,3.2,1.3,3.2,3.3    C209,128.5,207.7,129.8,205.7,129.8z M203.8,126.5c0,1.3,0.7,2.1,1.8,2.1c1.2,0,2-0.8,2-2.1c0-1.3-0.7-2.1-1.9-2.1    C204.6,124.4,203.8,125.2,203.8,126.5z"></path>			<path class="st1" d="M292.2,107.8c0-1.9,0-3.9,0-5.8c0-0.6,0.3-0.6,0.7-0.6c0.4,0,0.8-0.1,0.8,0.6c0,3.9,0,7.8,0,11.7    c0,0.7-0.4,0.6-0.8,0.6c-0.4,0-0.8,0-0.7-0.6C292.3,111.7,292.2,109.8,292.2,107.8z"></path>			<path class="st1" d="M243,107.8c0-1.9,0-3.9,0-5.8c0-0.7,0.4-0.6,0.8-0.6c0.5,0,0.7,0,0.7,0.6c0,3.9,0,7.8,0,11.7    c0,0.7-0.4,0.6-0.8,0.6c-0.4,0-0.8,0.1-0.8-0.6C243.1,111.7,243,109.8,243,107.8z"></path>			<path class="st1" d="M284.6,127.1c0.2,0.2,0.5,0.4,0.6,0.6c0.4,0.6,0.7,1.2,1.1,2c-0.5,0-0.8,0-1.2,0c-0.3,0-0.5-0.1-0.6-0.4    c-0.2-0.4-0.4-0.9-0.7-1.3c-0.4-0.7-1-0.6-1.6-0.6c-0.3,0-0.3,0.2-0.3,0.4c0,0.4,0,0.9,0,1.3c0,0.5-0.1,0.7-0.6,0.7    c-0.5,0-0.7-0.1-0.7-0.7c0-1.6,0-3.3,0-4.9c0-0.6,0.2-0.7,0.7-0.7c0.9,0.1,1.7,0,2.6,0.1c1.1,0.1,1.7,0.5,1.8,1.3    C286.1,125.9,285.7,126.5,284.6,127.1z M283,126.4c0.3,0,0.6,0,0.9-0.1c0.5-0.1,0.8-0.4,0.8-0.9c0-0.5-0.3-0.8-0.8-0.8    c-0.5,0-1,0-1.4,0c-0.1,0-0.3,0-0.3,0.1c0,0.5-0.1,1.1,0,1.6C282.2,126.6,282.7,126.3,283,126.4z"></path>			<path class="st1" d="M247.2,124.9c-0.6-0.2-1.2-0.5-1.9-0.6c-1.5-0.3-2.6,0.5-2.8,2c-0.1,1.4,0.9,2.4,2.4,2.4    c0.3,0,0.7-0.1,1-0.1c0.4,0,0.4-0.3,0.4-0.7c0-0.5-0.3-0.4-0.6-0.4c-0.4,0-0.8,0.1-0.8-0.6c0-0.3,0.1-0.5,0.5-0.5    c2.1-0.1,2-0.1,2.1,1.9c0,0.6-0.2,0.9-0.8,1c-1.1,0.3-2.2,0.4-3.2,0.1c-1.5-0.4-2.4-1.6-2.3-3.3c0.1-1.5,1-2.6,2.5-2.9    c0.7-0.2,1.5-0.1,2.2,0C247.2,123.6,247.2,123.6,247.2,124.9z"></path>			<path class="st1" d="M158.2,125.8c0-0.6,0-1.2,0-1.8c0-0.5,0.2-0.5,0.6-0.5c0.3,0,0.7-0.1,0.7,0.5c0,1.1,0,2.1,0,3.2    c0,1.2,0.7,1.7,1.9,1.5c0.7-0.1,1.1-0.5,1.2-1.3c0-1.1,0-2.2,0-3.3c0-0.4,0-0.7,0.6-0.7c0.5,0,0.6,0.2,0.6,0.7c0,1.1,0,2.1,0,3.2    c0,1.8-1,2.5-2.9,2.5c-1.8,0-2.7-0.8-2.7-2.6C158.2,126.7,158.2,126.3,158.2,125.8z"></path>			<path class="st1" d="M109.3,129.6c-0.9,0.2-1.6,0.1-1.9-0.9c-0.1-0.3-0.3-0.3-0.5-0.3c-0.9,0-1.9,0-2.8,0c-0.3,0-0.5,0.1-0.6,0.4    c-0.2,0.8-0.8,0.9-1.6,0.7c0.5-1.1,1-2.1,1.6-3.1c0.4-0.8,0.8-1.6,1.2-2.4c0.2-0.4,0.3-0.7,0.9-0.7c0.6,0,0.8,0.3,1,0.7    C107.4,125.9,108.3,127.7,109.3,129.6z M105.5,124.7c-0.5,1-0.9,1.9-1.4,2.8c0.9,0,1.8,0,2.7,0    C106.3,126.5,105.9,125.7,105.5,124.7z"></path>			<path class="st1" d="M112.2,125.8c0-0.5,0-1.1,0-1.6c0-0.5,0-0.7,0.6-0.7c0.6,0,0.7,0.2,0.7,0.8c0,1,0,2.1,0,3.1    c0,1,0.5,1.4,1.5,1.4c1,0,1.5-0.4,1.5-1.4c0-1.1,0-2.2,0-3.3c0-0.5,0.1-0.6,0.6-0.6c0.4,0,0.6,0.1,0.6,0.6c0,1.1,0,2.2,0,3.3    c0,1.6-0.9,2.4-2.5,2.5c-0.5,0-0.9,0-1.4-0.1c-1.1-0.3-1.7-0.9-1.8-2.1C112.2,127,112.2,126.4,112.2,125.8    C112.2,125.8,112.2,125.8,112.2,125.8z"></path>			<path class="st1" d="M293.3,124.7c-0.8-0.3-1.5-0.5-2.3-0.4c-0.4,0-0.9,0.1-1,0.6c-0.1,0.5,0.3,0.7,0.7,0.8    c0.6,0.2,1.2,0.3,1.7,0.5c0.7,0.2,1.2,0.7,1.2,1.5c0,0.8-0.3,1.5-1,1.8c-1.1,0.5-2.3,0.4-3.4,0c-0.4-0.1-0.4-0.2-0.3-1.3    c0.8,0.5,1.7,0.7,2.6,0.6c0.5-0.1,0.9-0.2,1-0.8c0.1-0.5-0.4-0.7-0.8-0.8c-0.6-0.2-1.2-0.4-1.8-0.6c-0.6-0.2-1-0.6-1-1.3    c-0.1-0.7,0.1-1.3,0.8-1.7c1.1-0.6,2.2-0.5,3.3-0.2C293.5,123.6,293.1,124.2,293.3,124.7z"></path>			<path class="st1" d="M94.5,128.2c0.9,0.4,1.8,0.6,2.7,0.5c0.4-0.1,0.8-0.2,0.9-0.7c0.1-0.5-0.3-0.7-0.7-0.8    c-0.6-0.2-1.2-0.4-1.8-0.6c-0.7-0.2-1.1-0.7-1.1-1.5c0-0.7,0.3-1.3,1-1.6c1-0.4,2-0.4,3.1-0.1c0.7,0.2,0.2,0.8,0.5,1.3    c-0.9-0.4-1.7-0.5-2.4-0.4c-0.4,0-0.8,0.1-0.9,0.6c-0.1,0.5,0.3,0.7,0.7,0.8c0.6,0.2,1.2,0.3,1.7,0.5c0.7,0.2,1.2,0.7,1.2,1.5    c0,0.9-0.4,1.5-1.2,1.8c-1.1,0.4-2.2,0.3-3.2-0.1C94.3,129.3,94.9,128.6,94.5,128.2z"></path>			<path class="st1" d="M273.2,126.5c0-0.8,0-1.7,0-2.5c0-0.4,0.1-0.5,0.5-0.5c1,0,2.1,0,3.1,0c0.5,0,0.5,0.2,0.5,0.6    c0,0.4-0.1,0.5-0.5,0.5c-0.6,0-1.2,0-1.8,0c-0.6,0-0.5,0.4-0.5,0.7c0,0.3-0.2,0.8,0.5,0.7c0.5,0,1,0,1.4,0c0.4,0,0.5,0.2,0.5,0.5    c0,0.4-0.1,0.5-0.5,0.5c-0.4,0-0.7,0-1.1,0c-0.7-0.1-0.8,0.2-0.9,0.9c0,0.7,0.2,0.9,0.9,0.8c0.5-0.1,1,0,1.5,0    c0.4,0,0.6,0.1,0.6,0.5c0,0.5-0.2,0.5-0.6,0.5c-1,0-2.1,0-3.1,0c-0.4,0-0.6-0.1-0.6-0.6C273.2,128.2,273.2,127.4,273.2,126.5z"></path>			<path class="st1" d="M224.3,126.5c0-0.8,0-1.7,0-2.5c0-0.4,0.1-0.6,0.5-0.6c1,0,2,0,3.1,0c0.4,0,0.5,0.1,0.5,0.5    c0,0.4-0.1,0.5-0.5,0.5c-0.6,0-1.2,0-1.8,0c-0.6,0-0.5,0.4-0.5,0.7c0,0.3-0.1,0.7,0.5,0.7c0.5,0,1,0,1.4,0c0.4,0,0.5,0.2,0.5,0.5    c0,0.4-0.1,0.5-0.5,0.5c-0.4,0-0.7,0-1.1,0c-0.7-0.1-0.9,0.2-0.9,0.9c0,0.7,0.2,0.9,0.9,0.8c0.6-0.1,1.1,0,1.7,0    c0.4,0,0.4,0.2,0.4,0.5c0,0.3,0,0.5-0.4,0.5c-1.1,0-2.3,0-3.4,0c-0.4,0-0.4-0.2-0.4-0.5C224.3,128.3,224.3,127.4,224.3,126.5z"></path>			<path class="st1" d="M265.7,126.5c0-0.8,0-1.7,0-2.5c0-0.4,0.1-0.6,0.5-0.6c1,0,2,0,3.1,0c0.4,0,0.5,0.1,0.5,0.5    c0,0.4-0.2,0.5-0.5,0.5c-0.3,0-0.6-0.1-0.8,0c-0.5,0.2-1.5-0.6-1.5,0.7c0,1.3,1,0.4,1.4,0.7c0.1,0.1,0.3,0,0.5,0    c0.4-0.1,0.6,0.1,0.6,0.5c0,0.5-0.2,0.5-0.6,0.5c-0.3,0-0.5,0-0.8,0c-1,0-1.4,0.5-1.1,1.5c0.1,0.3,0.3,0.2,0.5,0.2    c0.7,0,1.4,0,2.1,0c0.4,0,0.5,0.2,0.5,0.5c0,0.3,0,0.6-0.5,0.6c-1.1,0-2.2,0-3.4,0c-0.4,0-0.5-0.2-0.4-0.5    C265.7,128.3,265.7,127.4,265.7,126.5z"></path>			<path class="st1" d="M182.2,124.8c-1.3-0.5-2.7-1-3.8,0.4c-0.6,0.7-0.6,2,0,2.7c1.2,1.4,2.6,0.9,4,0.4c0,1.4,0,1.4-1.3,1.5    c-0.4,0-0.9,0.1-1.3,0c-1.8-0.1-3-1.3-3.1-3.1c-0.1-1.9,0.9-3.1,2.8-3.3c0.5-0.1,1.1,0,1.6,0.1    C182.3,123.5,182.3,123.5,182.2,124.8z"></path>			<path class="st1" d="M145.7,128.2c-0.1,1.4-0.1,1.4-1.4,1.6c-0.4,0-0.8,0-1.2,0c-1.8-0.1-3-1.3-3.1-3.1c-0.1-1.9,0.9-3.1,2.8-3.3    c0.5-0.1,1,0,1.5,0c1.1,0.2,1.1,0.2,1.1,1.4c-1.4-0.4-2.8-1-3.9,0.6c-0.5,0.7-0.4,2,0.2,2.7C143,129.2,144.3,128.8,145.7,128.2z"></path>			<path class="st1" d="M212.1,126.5c0-0.8,0-1.7,0-2.5c0-0.4,0.1-0.6,0.5-0.6c1,0,2.1,0,3.1,0c0.4,0,0.5,0.2,0.5,0.6    c0,0.4-0.1,0.6-0.5,0.5c-0.6,0-1.2,0-1.8,0c-0.7,0-0.5,0.5-0.5,0.8c0,0.3-0.1,0.7,0.5,0.7c0.5,0,1,0,1.4,0c0.4,0,0.5,0.2,0.5,0.5    c0,0.3-0.1,0.5-0.5,0.5c0,0-0.1,0-0.1,0c-0.6,0.1-1.5-0.3-1.8,0.2c-0.3,0.4-0.1,1.2-0.1,1.8c0,0.5-0.2,0.6-0.7,0.6    c-0.4,0-0.7,0-0.7-0.6C212.2,128.2,212.1,127.4,212.1,126.5z"></path>			<path class="st1" d="M190.6,126.5c0-0.8,0-1.6,0-2.4c0-0.6,0.2-0.7,0.7-0.7c0.5,0,0.6,0.1,0.6,0.6c0,1.3,0,2.5,0,3.8    c0,0.5,0.1,0.6,0.6,0.6c0.7,0,1.3,0,2,0c0.5,0,0.5,0.2,0.5,0.6c0,0.4,0,0.6-0.5,0.6c-1.1,0-2.2,0-3.3,0c-0.4,0-0.5-0.1-0.5-0.5    C190.6,128.3,190.6,127.4,190.6,126.5z"></path>			<path class="st1" d="M250.9,126.5c0-0.9,0-1.7,0-2.6c0-0.6,0.4-0.5,0.7-0.5c0.3,0,0.6,0,0.6,0.5c0,1.8,0,3.5,0,5.3    c0,0.6-0.4,0.4-0.7,0.4c-0.3,0-0.7,0.1-0.7-0.4C251,128.3,250.9,127.4,250.9,126.5z"></path>			<path class="st1" d="M185.7,126.5c0-0.9,0-1.7,0-2.6c0-0.5,0.3-0.5,0.6-0.5c0.3,0,0.7-0.1,0.7,0.5c0,1.8,0,3.5,0,5.3    c0,0.6-0.4,0.4-0.7,0.4c-0.3,0-0.7,0.1-0.7-0.4C185.7,128.3,185.7,127.4,185.7,126.5z"></path>			<path class="st1" d="M131.9,126.5c0,0.9,0,1.8,0,2.7c0,0.6-0.3,0.4-0.7,0.4c-0.3,0-0.6,0.1-0.6-0.5c0-1.8,0-3.5,0-5.3    c0-0.6,0.3-0.5,0.7-0.5c0.3,0,0.7-0.1,0.6,0.5C131.9,124.8,131.9,125.6,131.9,126.5z"></path>			<path class="st1" d="M262.2,103.9c-0.5-0.6-0.6-1.3-0.2-1.9c0.5-0.7,1.3-0.7,2-0.6c0.2,0,0.6,0,0.5,0.5c-0.1,0.4-0.3,0.4-0.7,0.3    c-0.5-0.1-1-0.1-1.2,0.6c-0.2,0.6,0.3,1.1,0.8,1c0.3,0,0.6-0.1,0.8-0.1c0.2,0,0.5-0.1,0.5,0.3c0,0.4-0.1,0.5-0.5,0.5    c-0.8,0.1-1.5,0.2-2.3,0.3c-0.2,0-0.5,0.3-0.6-0.2c0-0.3,0-0.6,0.4-0.6C262.1,104,262.1,103.9,262.2,103.9z"></path>			<path class="st1" d="M98.8,106.4c-0.6-0.1-0.9-0.4-0.8-1c0-0.6,0.3-0.9,0.9-0.9c0.6,0,0.9,0.4,0.8,1    C99.7,106.1,99.4,106.4,98.8,106.4z"></path>			<path class="st1" d="M106.7,116.8c-0.7,0-0.9-0.3-1-0.9c0-0.6,0.2-1,0.8-1c0.6,0,0.9,0.3,0.9,0.9    C107.5,116.4,107.2,116.8,106.7,116.8z"></path>			<path class="st1" d="M136.9,104.5c-0.6,0-0.8-0.4-0.8-0.9c0-0.6,0.2-0.9,0.9-0.9c0.6,0,0.9,0.4,0.9,1    C137.8,104.2,137.5,104.5,136.9,104.5z"></path>			<path class="st1" d="M254.9,103.6c0,0.6-0.3,0.9-0.9,0.9c-0.6,0-0.9-0.4-0.9-1c0-0.6,0.3-0.9,0.9-0.9    C254.7,102.6,254.9,103,254.9,103.6z"></path>			<path class="st1" d="M109.2,116.8c-0.7,0-0.9-0.4-0.9-1c0-0.6,0.3-0.9,0.9-0.9c0.6,0,0.9,0.4,0.9,1    C110,116.5,109.7,116.8,109.2,116.8z"></path>			<path class="st1" d="M271.1,115.7c0,0.8-0.3,1.1-0.9,1.1c-0.6,0-0.9-0.4-0.9-1c0-0.6,0.3-0.9,0.9-0.9    C270.8,114.9,271.1,115.3,271.1,115.7z"></path>			<path class="st1" d="M183.3,102.6c0.7,0,1,0.4,0.9,1c0,0.6-0.3,0.9-0.9,0.9c-0.7,0-0.9-0.4-0.9-1    C182.5,102.9,182.7,102.6,183.3,102.6z"></path>			<path class="st1" d="M267.7,114.9c0.5,0,0.8,0.3,0.8,0.9c0,0.6-0.2,1-0.9,1c-0.6,0-0.9-0.4-0.9-1    C266.7,115.3,267,114.9,267.7,114.9z"></path>			<path class="st1" d="M186,104.5c-0.7,0-0.9-0.3-1-0.9c0-0.6,0.2-1,0.9-1c0.7,0,0.9,0.4,0.9,1C186.8,104.1,186.5,104.5,186,104.5z    "></path>			<path class="st1" d="M194.4,115.8c0,0.7-0.3,1-0.9,1c-0.6,0-0.8-0.4-0.8-0.9c0-0.6,0.3-1,0.9-0.9    C194.1,114.9,194.4,115.3,194.4,115.8z"></path>			<path class="st1" d="M256.7,104.5c-0.7,0-1-0.4-0.9-1c0-0.6,0.3-0.9,0.9-0.9c0.7,0,0.9,0.4,0.9,1    C257.5,104.2,257.2,104.5,256.7,104.5z"></path>			<path class="st1" d="M191,116.8c-0.7,0-0.9-0.3-1-0.9c0-0.6,0.2-1,0.8-1c0.6,0,0.9,0.3,0.9,0.9    C191.8,116.4,191.6,116.8,191,116.8z"></path>		</g>	</g>	<g class="st2">		<linearGradient id="SVGID_1_" gradientUnits="userSpaceOnUse" x1="20.4298" y1="21.0299" x2="52.3298" y2="37.2838">			<stop offset="0.405" style="stop-color:#FFFFFF;stop-opacity:0"></stop>			<stop offset="1" style="stop-color:#FFFFFF"></stop>		</linearGradient>		<path class="st3" d="M44.5,18.5c0-0.2,2.1-5.6,2.9-8.2c0.3-1.1,0.2-1.2-0.9-1.4C43,8,39.6,8,36.2,8.8c-1.1,0.3-1.1,0.3-0.8,1.4   c0.8,3,3.3,8.9,3.3,9c0,0-0.6-0.4-0.8-0.6c-3.1-2.8-6.6-4.7-10.6-5.7c-0.4-0.1-0.8-0.2-1.3,0.2c-2.1,2.1-3.8,4.4-5.1,7.1   c-0.3,0.6-0.1,1,0.6,0.8c2.7-0.4,5.4-0.4,8.1,0c1.9,0.3,3.7,0.6,5.5,1.1c-1.2,0-2.3,0.1-3.5,0.3c-4.6,0.8-8.7,3-12.5,5.5   c-0.2,0.2-0.3,0.3-0.4,0.6c-0.1,3.3,0.1,6.5,1.2,9.6c0.3,0.9,0.4,0.9,1.1,0.2c3.3-3.2,6.8-6.2,10.4-9.1c0.2-0.1,0.8-0.7,1.1-0.8   c-0.2,0.3-0.8,1-1,1.2c-3.9,4.6-6.1,9.8-7,15.7c-0.1,0.4,0,0.7,0.3,1.1c1.8,2.7,8.8,6.1,8.9,6.1c0.1,0,0.2,0,0.2-0.1   c0.1-0.2,0.1-0.4,0.1-0.6c0.1-1.6,0.3-3.2,0.5-4.9c0.8-6.1,2.2-12,4.2-17.9c0.2-0.7,0.5-1.3,0.8-2.1c0.1,0.1,0,8.7-0.1,13   c0,0.7-1,14.4-1,15.3c0,0.1,0,0.2,0,0.2c2-1.7,3.8-3.5,5.5-5.4c-0.1-1-0.1-2-0.2-3c-0.1-2.1-0.3-4.2-0.4-6.3   c-0.1-2.7-0.2-5.4-0.2-8.1c0-2,0-3.9,0-5.9c0.1,0.1,0.6,1.4,0.8,2c1.9,5.3,3.3,10.7,4.1,16.2c2.6-3.8,4.5-7.8,5.6-11.7   c-0.2-0.4-0.5-0.8-0.7-1.1c-1-1.5-3.7-4.3-3.6-4.4c0,0,2.3,1.8,4.8,3.8c0.6-2.8,0.9-5.6,0.7-8.2c-2.2-0.7-4.4-1.1-6.8-1.2   c0.1-0.1,3.3-0.8,4.8-1c0.5-0.1,1.1-0.2,1.6-0.2c-0.5-2.4-1.3-4.8-2.6-6.9c-0.2,0.1-0.3,0.1-0.5,0.2   C48.8,15.4,44.4,18.6,44.5,18.5z M48.9,27.7L48.9,27.7L48.9,27.7L48.9,27.7z"></path>		<linearGradient id="SVGID_2_" gradientUnits="userSpaceOnUse" x1="2.475" y1="47.2436" x2="31.2223" y2="61.8911">			<stop offset="0.405" style="stop-color:#FFFFFF;stop-opacity:0"></stop>			<stop offset="1" style="stop-color:#FFFFFF"></stop>		</linearGradient>		<path class="st4" d="M4.8,42.6c0,0.4,6.3,9.6,6.9,10.1c1.4,1.2,7.7,6.8,13.3,11.8c2.3-1.1,4.6-2.4,6.8-3.8   C21.3,53.7,6.2,43.6,4.8,42.6z"></path>	</g></g></svg>